# xmcd
#
# Track frame offsets:
#	150
#	15225
#	28674
#	42691
#	58001
#	73154
#	89654
#	102432
#	114389
#	128796
#
# Disc length: 1945 seconds
#
# Revision: 0
# Processed by: cddbd v1.5.2PL0 Copyright (c) Steve Scherf et al.
# Submitted via: EasyCDDAExtractor 16.0.3.2
#
DISCID=8a07970a
DTITLE=Priscila Y Sus Balas De Plata - Exitos Sin Fronteras
DYEAR=1900
DGENRE=
TTITLE0=Sin Cambiar
TTITLE1=Un Beso Más
TTITLE2=No Se Si Es Amor
TTITLE3=Sobreviviré
TTITLE4=Solo Llamé Para Decirte Que Te Amo
TTITLE5=Ahora Que Estuviste Lejos
TTITLE6=Ven Por Favor
TTITLE7=Ahora Estoy Sola
TTITLE8=La Cantante
TTITLE9=Si Yo Fuera Ella
EXTD=
EXTT0=
EXTT1=
EXTT2=
EXTT3=
EXTT4=
EXTT5=
EXTT6=
EXTT7=
EXTT8=
EXTT9=
PLAYORDER=
